<svg height="512pt" viewBox="0 0 512 512" width="512pt" xmlns="http://www.w3.org/2000/svg"><path d="m368 192h-309.332031c-32.363281 0-58.667969-26.304688-58.667969-58.667969v-74.664062c0-32.363281 26.304688-58.667969 58.667969-58.667969h309.332031c32.363281 0 58.667969 26.304688 58.667969 58.667969v74.664062c0 32.363281-26.304688 58.667969-58.667969 58.667969zm-309.332031-160c-14.699219 0-26.667969 11.96875-26.667969 26.667969v74.664062c0 14.699219 11.96875 26.667969 26.667969 26.667969h309.332031c14.699219 0 26.667969-11.96875 26.667969-26.667969v-74.664062c0-14.699219-11.96875-26.667969-26.667969-26.667969zm0 0"/><path d="m202.667969 346.667969c-8.832031 0-16-7.167969-16-16v-26.667969c0-32.363281 26.300781-58.667969 58.664062-58.667969h229.335938c2.941406 0 5.332031-2.386719 5.332031-5.332031v-122.667969c0-2.941406-2.390625-5.332031-5.332031-5.332031h-58.667969c-8.832031 0-16-7.167969-16-16s7.167969-16 16-16h58.667969c20.585937 0 37.332031 16.746094 37.332031 37.332031v122.667969c0 20.585938-16.746094 37.332031-37.332031 37.332031h-229.335938c-14.699219 0-26.664062 11.96875-26.664062 26.667969v26.667969c0 8.832031-7.167969 16-16 16zm0 0"/><path d="m240 512h-74.667969c-20.585937 0-37.332031-16.746094-37.332031-37.332031v-117.335938c0-20.585937 16.746094-37.332031 37.332031-37.332031h74.667969c20.585938 0 37.332031 16.746094 37.332031 37.332031v117.335938c0 20.585937-16.746093 37.332031-37.332031 37.332031zm-74.667969-160c-2.941406 0-5.332031 2.390625-5.332031 5.332031v117.335938c0 2.941406 2.390625 5.332031 5.332031 5.332031h74.667969c2.945312 0 5.332031-2.390625 5.332031-5.332031v-117.335938c0-2.941406-2.386719-5.332031-5.332031-5.332031zm0 0"/></svg>