<svg width="28.260999999999996" height="28.260999999999996" xmlns="http://www.w3.org/2000/svg">

 <g>
  <title>background</title>
  <rect fill="none" id="canvas_background" height="402" width="582" y="-1" x="-1"/>
 </g>
 <g>
  <title>Layer 1</title>
  <g stroke="null" id="svg_1">
   <path stroke="null" transform="rotate(-44 13.409161567687992,22.668066024780277) " id="svg_2" fill="#757575" d="m16.8,19.163366c-0.51997,-0.519014 -1.001808,-1.044063 -1.435116,-1.561353c-0.099661,-0.123287 -0.255652,-0.190535 -0.408176,-0.181914c-0.161191,0.008621 -0.306782,0.089664 -0.389111,0.22071l-6.341895,9.505201c-0.129992,0.198294 -0.103127,0.462974 0.06413,0.629369c0.096194,0.093974 0.223587,0.141393 0.350113,0.141393c0.097928,0 0.196722,-0.023278 0.27905,-0.081042l9.534508,-6.353181c0.126526,-0.084491 0.211454,-0.231056 0.22012,-0.385381c0.010399,-0.16036 -0.060663,-0.311236 -0.182856,-0.41297c-0.588432,-0.474182 -1.157799,-0.985437 -1.690768,-1.520832z"/>
   <path stroke="null" transform="rotate(-44 13.420799255371099,9.277178764343265) " id="svg_3" fill="#757575" d="m22.354554,5.829621c-0.403753,-1.065933 -1.19051,-2.21787 -2.215023,-3.249053c-1.545847,-1.553291 -3.318212,-2.516713 -4.623709,-2.516713c-0.518741,0 -0.955348,0.159846 -1.257946,0.461296c-0.347556,0.350967 -0.501449,0.870468 -0.452169,1.45773c-0.015562,0.339674 -5.417382,4.664216 -5.926613,4.644235c-1.353913,-0.41091 -2.432894,-0.277125 -3.08132,0.377898c-1.450745,1.455993 -0.207496,4.984778 2.825408,8.030548c2.122514,2.130997 4.544169,3.454943 6.328637,3.454943c0.69079,0 1.27005,-0.210233 1.666887,-0.60898c0.536897,-0.541219 0.722779,-1.36912 0.540355,-2.410728c0.003458,-0.025193 0.005187,-0.049518 0.005187,-0.072973c0,-0.055599 -0.008646,-0.106854 -0.03026,-0.151159c-0.03026,-0.368342 4.199206,-6.284399 4.579616,-6.298299c0.072624,0.00695 0.141789,0.010425 0.210955,0.010425c0.528251,0 0.952754,-0.158109 1.261405,-0.468246c0.551594,-0.552513 0.612979,-1.498561 0.168591,-2.660923z"/>
  </g>
  <g id="svg_4"/>
  <g id="svg_5"/>
  <g id="svg_6"/>
  <g id="svg_7"/>
  <g id="svg_8"/>
  <g id="svg_9"/>
  <g id="svg_10"/>
  <g id="svg_11"/>
  <g id="svg_12"/>
  <g id="svg_13"/>
  <g id="svg_14"/>
  <g id="svg_15"/>
  <g id="svg_16"/>
  <g id="svg_17"/>
  <g id="svg_18"/>
 </g>
</svg>